<svg width="45" height="40" viewBox="0 0 45 40" fill="none" xmlns="http://www.w3.org/2000/svg">
<path d="M22.5 10.882V25.3913L29.3509 29.9408L26.7818 22.4403L33.2046 18.5055H25.2118L22.5 10.882ZM22.5 31.5393L11.9382 38.4866C11.4148 38.8555 10.8439 39.0301 10.2254 39.0104C9.60693 38.9907 9.05981 38.8366 8.58405 38.5481C8.10829 38.2612 7.74005 37.8718 7.47934 37.3799C7.21862 36.8881 7.20625 36.3553 7.44223 35.7815L11.51 24.4076L1.16221 18.0752C0.5913 17.7473 0.234481 17.3169 0.0917534 16.7841C-0.0509743 16.2513 -0.0271861 15.7594 0.163118 15.3086C0.353421 14.8577 0.686452 14.4577 1.16221 14.1085C1.63797 13.7593 2.20888 13.5855 2.87494 13.5871H15.6491L19.7882 1.78294C20.0261 1.20912 20.3952 0.768106 20.8957 0.459885C21.3962 0.151665 21.931 -0.00162646 22.5 1.30116e-05C23.0709 1.30116e-05 23.6066 0.154124 24.1071 0.462344C24.6076 0.770565 24.9758 1.21076 25.2118 1.78294L29.3509 13.5871H42.1251C42.7911 13.5871 43.362 13.7617 43.8378 14.1109C44.3135 14.4601 44.6466 14.8594 44.8369 15.3086C45.0272 15.7594 45.051 16.2513 44.9082 16.7841C44.7655 17.3169 44.4087 17.7473 43.8378 18.0752L33.49 24.4076L37.5578 35.7815C37.7957 36.3553 37.7842 36.8881 37.5235 37.3799C37.2628 37.8718 36.8936 38.2612 36.416 38.5481C35.9402 38.835 35.3931 38.9891 34.7746 39.0104C34.1561 39.0317 33.5852 38.8571 33.0618 38.4866L22.5 31.5393Z" fill="black"/>
</svg>
